<?xml version="1.0" encoding="UTF-8"?>
<svg id="Layer_2" data-name="Layer 2" xmlns="http://www.w3.org/2000/svg" viewBox="0 0 46.14 39.46">
  <defs>
    <style>
      .cls-1 {
        fill: #fff;
        stroke-width: 0px;
      }
    </style>
  </defs>
  <g id="Layer_1-2" data-name="Layer 1">
    <g id="Blog">
      <path class="cls-1" d="M46.09,15.83c-.25-1.69-1.41-2.63-3.17-2.99v-1.29c0-2.68-.03-5.34,0-8.02,0-1.24-.51-2.18-1.42-2.96-.76-.65-2.12-.76-2.85-.22-.47.35-.89.75-1.37,1.1-1.37,1.01-2.69,2.12-4.15,2.98-1.74,1.04-3.56,1.97-5.41,2.78-1.6.71-3.27,1.28-4.96,1.73-2.17.58-4.42.67-6.66.66-3.77,0-7.55-.02-11.32,0-2.92.02-4.53,1.81-4.7,4.11-.14,1.79-.08,3.61,0,5.42.1,2.15,2.1,4.09,4.29,3.98.88-.04,1.78,0,2.62,0-.14,1.27-.35,2.39-.36,3.51,0,1.33,0,2.69.3,3.96.56,2.28,1.33,4.49,2.05,6.73.1.31.3.71.56.84.76.39,1.55.75,2.36.99,1.53.44,3.09.41,4.64.02,1.46-.38,2.82-.89,3.47-2.4-.99-1-1.95-1.91-2.84-2.89-1.11-1.24-1.38-2.6-.37-4.05.03-.05,0-.15,0-.29-.79-.76-.99-1.78-.9-2.88.15-1.97,1.94-3.51,3.91-3.3.73.08,1.45.25,2.17.4,3.47.71,6.69,2.07,9.74,3.83,2.37,1.36,4.6,2.91,6.73,4.63,1.04.86,1.85.9,2.93.08,1.01-.76,1.53-1.74,1.53-3.02,0-2.63,0-5.27,0-7.9v-1.3c2.06-.74,3.53-1.89,3.17-4.23ZM39.2,27.8c-.26-.08-.54-.11-.73-.24-2.1-1.36-4.09-2.91-6.29-4.04-2.48-1.29-5.05-2.47-7.84-3.02-1.07-.21-2.14-.44-3.2-.67-.34-.08-.67-.19-1.04-.3v-6.31c7.07-1.05,13.28-4.14,19.11-8.57v23.15Z"/>
    </g>
  </g>
</svg>