<?xml version="1.0" encoding="UTF-8"?>
<svg id="Layer_2" data-name="Layer 2" xmlns="http://www.w3.org/2000/svg" viewBox="0 0 26.37 50.41">
  <defs>
    <style>
      .cls-1 {
        fill: #fff;
        stroke-width: 0px;
      }
    </style>
  </defs>
  <g id="Layer_1-2" data-name="Layer 1">
    <path id="Facebook" class="cls-1" d="M7.55,27.55H.03c-.04-3.18-.03-6.2-.01-9.36h7.54c0-.6,0-1.04,0-1.49,0-1.76-.05-3.52.01-5.27.11-2.92.86-5.63,2.86-7.88C12.21,1.53,14.49.32,17.12.11c2.57-.21,5.18-.06,7.77,0,1.29.03,1.46.23,1.47,1.47.02,1.94.02,3.89,0,5.83-.01,1.22-.14,1.35-1.36,1.37-1.48.03-2.96,0-4.44.08-.63.03-1.34.14-1.86.47-.74.46-1.33,1.17-1.34,2.14-.02,2.16,0,4.33,0,6.62,1.45.2,2.87.07,4.29.1,1.37.02,2.75,0,4.32,0-.07.69-.12,1.18-.17,1.66-.24,2.2-.47,4.41-.72,6.61-.1.95-.22,1.07-1.23,1.09-1.67.02-3.33,0-5,.01-.45,0-.9.05-1.48.08-.03.62-.08,1.16-.08,1.7,0,6.29,0,12.58,0,18.88,0,.37.01.74,0,1.11-.05.91-.17,1.08-1.05,1.09-2.64.02-5.28,0-7.91-.01-.18,0-.35-.08-.66-.16-.03-.53-.09-1.07-.09-1.6,0-6.48,0-12.95,0-19.43,0-.49,0-.99,0-1.64Z"/>
  </g>
</svg>