<?xml version="1.0" encoding="UTF-8"?>
<svg id="Layer_2" data-name="Layer 2" xmlns="http://www.w3.org/2000/svg" viewBox="0 0 47.87 50.39">
  <defs>
    <style>
      .cls-1 {
        fill: #fff;
        stroke-width: 0px;
      }
    </style>
  </defs>
  <g id="Layer_1-2" data-name="Layer 1">
    <g id="google">
      <path class="cls-1" d="M30.59.01C26.71.01,22.82.04,18.93,0c-3.64-.03-6.93.99-10.09,2.79C5.17,4.89,1.96,10.95,3.47,15.5c.89,2.67,2.29,4.85,4.79,6.27,1.75.99,3.61,1.56,5.64,1.55.48,0,.97.02,1.46.04-.23,2.21-.43,4.25,1.36,6.14-.99.19-1.7.42-2.42.46-2.13.11-4.2.45-6.21,1.21-2.87,1.08-5.38,2.59-6.95,5.35-1.43,2.51-1.48,5.15-.37,7.71.94,2.17,2.74,3.62,4.92,4.58,2.8,1.24,5.79,1.45,8.78,1.58.91.04,1.83-.29,2.74-.34,2.3-.14,4.48-.76,6.49-1.8,1.48-.77,2.94-1.77,4.09-2.97,2.18-2.27,3.18-5.08,2.98-8.31-.18-2.83-1.45-5.07-3.5-6.91-1.39-1.25-2.9-2.36-4.33-3.56-1.8-1.51-1.87-3.16-.22-4.85.68-.69,1.45-1.28,2.15-1.95,1.47-1.41,2.7-2.94,3.31-4.97.41-1.34.37-2.64.38-3.97.02-1.8-.61-3.43-1.61-4.9-.62-.89-1.31-1.73-2.12-2.8.88,0,1.57.08,2.23-.02.67-.1,1.36-.27,1.95-.58.88-.46,1.7-1.07,2.53-1.64.19-.14.32-.38.67-.81h-1.62ZM24.33,36.15c2.65,3.03,2.34,6.83-.85,9.27-1.24.94-2.84,1.52-4.51,1.54h-2.04c-2.34.2-4.55-.22-6.6-1.26-3.09-1.56-4.85-4.08-4.16-7.68.24-1.26.87-2.45,1.93-3.23.92-.66,1.93-1.24,2.98-1.66,2.2-.89,4.52-1.22,6.89-1.25.82-.01,1.49.24,2.16.72,1.51,1.06,2.98,2.15,4.2,3.55ZM21.63,18.44c-1.14,1.59-2.66,2.5-4.86,2.43-1.53.19-2.83-.62-3.98-1.77-1.76-1.75-2.62-3.95-3.13-6.33-.09-.45-.2-.9-.29-1.35-.45-2.43-.07-4.69,1.48-6.66,1.5-1.91,4.72-2.32,6.61-1.11,1.75,1.13,2.83,2.71,3.67,4.5.88,1.91,1.36,3.93,1.36,6.03,0,1.46.06,2.97-.86,4.26Z"/>
      <path class="cls-1" d="M47.65,24.73h-6.13v6.31h-3.55v-6.28h-6.13c-.49-1.33-.2-2.52-.29-3.87h6.34v-6.34h3.53v6.26h6.27c.24,1.34.26,2.54-.04,3.91Z"/>
    </g>
  </g>
</svg>