<?xml version="1.0" encoding="UTF-8"?>
<svg id="Layer_2" data-name="Layer 2" xmlns="http://www.w3.org/2000/svg" viewBox="0 0 42.87 33.91">
  <defs>
    <style>
      .cls-1 {
        fill: #fff;
        stroke-width: 0px;
      }
    </style>
  </defs>
  <g id="Layer_1-2" data-name="Layer 1">
    <g id="Home-Mail">
      <path class="cls-1" d="M42.75,10.85c.06.41.12.61.12.81,0,6.08,0,12.16,0,18.24,0,1.61-.74,2.82-2.19,3.48-.67.31-1.47.5-2.21.5-11.36.03-22.72.03-34.08,0-1.47,0-2.83-.44-3.67-1.77-.28-.45-.48-.97-.61-1.48-.1-.38-.06-.8-.06-1.2,0-5.75,0-11.5,0-17.25,0-.36.03-.71.05-1.19.37.19.63.3.85.46,1.05.78,2.06,1.61,3.13,2.35,2.54,1.76,5.12,3.46,7.66,5.22,1.69,1.18,3.29,2.51,5.02,3.63,1.56,1,3.22,1.87,5.2,1.71,1.32-.11,2.44-.72,3.54-1.35,1.13-.64,2.18-1.42,3.25-2.17,2.02-1.41,4.03-2.84,6.05-4.26,2.17-1.52,4.36-3.02,6.53-4.55.46-.32.86-.72,1.42-1.19Z"/>
      <path class="cls-1" d="M.02,4.73c.07-1.59.26-2.68,1.17-3.6C1.92.39,2.8.21,3.71.02c.18-.04.37,0,.55,0,11.43,0,22.86,0,34.29,0,1.29,0,2.43.36,3.34,1.34.6.65.89,1.41.96,2.27.12,1.64-.4,3.08-1.34,4.4-.99,1.39-2.31,2.38-3.72,3.3-1.22.79-2.39,1.64-3.58,2.48-1.24.88-2.47,1.78-3.72,2.65-1.51,1.06-3.06,2.08-4.56,3.16-1.09.79-2.2,1.56-3.51,1.89-.61.15-1.33.19-1.93.03-1.34-.35-2.49-1.14-3.62-1.95-1.97-1.42-3.97-2.82-5.95-4.22-1.86-1.31-3.7-2.67-5.61-3.91-1.29-.84-2.55-1.7-3.51-2.91C.83,7.32-.14,6.05.02,4.73Z"/>
    </g>
  </g>
</svg>