<?xml version="1.0" encoding="UTF-8"?>
<svg id="Layer_2" data-name="Layer 2" xmlns="http://www.w3.org/2000/svg" viewBox="0 0 47.27 37.83">
  <defs>
    <style>
      .cls-1 {
        fill: #fff;
        stroke-width: 0px;
      }
    </style>
  </defs>
  <g id="Layer_1-2" data-name="Layer 1">
    <g id="Home">
      <path class="cls-1" d="M27.01,26.67c-2.35-.04-4.57-.04-6.94-.01-.12,3.78.03,7.39-.1,11.02-.49.06-.79.13-1.09.13-3.27,0-6.55.03-9.82-.01-.54,0-1.15-.18-1.61-.48-.52-.34-.78-.91-.77-1.62.03-4.48.02-8.97,0-13.45,0-.66.26-1.09.73-1.48,1.92-1.58,3.82-3.18,5.74-4.76,2.92-2.4,5.86-4.8,8.79-7.19,1.39-1.14,1.41-1.69,3.28-.06,3.15,2.74,6.46,5.3,9.68,7.95,1.71,1.41,3.38,2.88,5.11,4.27.44.35.61.7.61,1.24-.01,4.48,0,8.97-.01,13.45,0,1.19-.88,2.08-2.11,2.14-1.21.05-2.42.02-3.63.02-2.02,0-4.04,0-6.06,0-1.58,0-1.64-.06-1.64-1.69,0-2.6,0-5.2,0-7.8,0-.52-.09-1.04-.15-1.65Z"/>
      <path class="cls-1" d="M23.67,5.56c-.65.52-1.2.96-1.75,1.41-2.89,2.37-5.78,4.73-8.65,7.11-1.95,1.62-3.87,3.27-5.8,4.91-1.05.89-2.07,1.8-3.14,2.67-1.23,1-1.91.92-2.92-.28-.34-.41-.67-.84-.97-1.28-.65-.96-.59-1.47.27-2.18,1.72-1.41,3.46-2.79,5.16-4.23,2.38-2.01,4.73-4.06,7.11-6.06,1.84-1.54,3.72-3.04,5.58-4.56,1.02-.83,2.01-1.72,3.1-2.47,1.56-1.08,3.36-.61,4.68.49,1.77,1.49,3.53,2.99,5.3,4.47.22.19.54.27,1.01.49.02-.67.05-1.19.05-1.7,0-.99-.02-1.97.01-2.96.03-.84.38-1.27,1.21-1.29,1.79-.05,3.59-.05,5.38.01.44.02.87.37,1.31.57,0,3.55,0,7,0,10.45,0,.36.03.72,0,1.08-.06.61.23,1.04.66,1.39,1.3,1.08,2.61,2.14,3.92,3.21.52.42,1.04.84,1.55,1.26.53.43.69,1.09.38,1.57-.58.88-1.33,1.65-2.06,2.41-.41.42-.91.48-1.44.05-1.21-.98-2.48-1.88-3.68-2.87-2.27-1.86-4.52-3.75-6.76-5.63-2.35-1.97-4.7-3.95-7.04-5.93-.78-.66-1.55-1.34-2.45-2.12Z"/>
    </g>
  </g>
</svg>