<?xml version="1.0" encoding="UTF-8"?>
<svg id="Layer_2" data-name="Layer 2" xmlns="http://www.w3.org/2000/svg" viewBox="0 0 46.48 46.59">
  <defs>
    <style>
      .cls-1 {
        fill: #fff;
        stroke-width: 0px;
      }
    </style>
  </defs>
  <g id="Layer_1-2" data-name="Layer 1">
    <path id="Instagram" class="cls-1" d="M46.46,23.35v-1.67c0-5.23-.03-10.45.02-15.68.02-2.4-1.87-5.06-3.97-5.56-1-.24-1.96-.43-2.98-.43H7.05c-.51,0-1.03-.05-1.52.05-1.17.23-2.31.54-3.28,1.32C.65,2.68.01,4.39.01,6.37,0,17.7,0,29.03.01,40.37c0,3.59,2.83,6.21,6.22,6.21,11.33,0,22.67.01,34.01,0,3.75,0,6.28-2.85,6.24-6.3-.07-5.65-.02-11.29-.02-16.93ZM23.46,14.43c4.87.09,8.85,4.21,8.82,8.83-.03,4.45-4,8.71-9.1,8.67-5.07-.04-9-4.28-8.96-8.81.04-4.58,4.05-8.79,9.24-8.69ZM40.82,38.5c0,.37-.04.74-.09,1.1-.07.52-.36.85-.89.92-.55.06-1.1.15-1.65.15-9.99.01-19.98.01-29.97,0-2.31,0-2.58-.27-2.58-2.52v-18.08h3.31c-.05.69-.07,1.32-.14,1.94-.31,2.68.11,5.18,1.29,7.65.98,2.06,2.36,3.75,4.1,5.11,1.46,1.15,3.2,1.89,5.02,2.47,2.15.69,4.3.6,6.44.39,1.83-.18,3.54-.95,5.14-1.85,1.98-1.13,3.57-2.7,4.82-4.63,1.28-1.98,2.08-4.1,2.12-6.46.02-1.29-.14-2.58-.21-3.87-.01-.22,0-.44,0-.75h3.18c.04.43.11.83.11,1.23.01,5.73,0,11.46,0,17.2ZM40.81,12.26c-.07,1.27-.58,1.88-1.85,1.94-1.7.1-3.42.09-5.12.03-1.11-.04-1.68-.47-1.75-1.57-.12-1.88-.04-3.77.02-5.66.03-.81.58-1.25,1.38-1.26,1.94-.01,3.88-.05,5.81.05,1.1.06,1.4.48,1.49,1.62.06.82.01,1.66.01,2.49h.02c0,.79.03,1.57-.01,2.36Z"/>
  </g>
</svg>