<?xml version="1.0" encoding="UTF-8"?>
<svg id="Layer_2" data-name="Layer 2" xmlns="http://www.w3.org/2000/svg" viewBox="0 0 45.4 38.99">
  <defs>
    <style>
      .cls-1 {
        fill: #fff;
        stroke-width: 0px;
      }
    </style>
  </defs>
  <g id="Layer_1-2" data-name="Layer 1">
    <path id="Pages" class="cls-1" d="M20.85,25.75v-4.41h-12.3v4.41c.7,0,1.38.05,2.06,0,1.42-.11,2.64,1.03,2.63,2.58-.02,2.67,0,5.34,0,8.01,0,1.35-.9,2.55-2.55,2.6-2.75.08-5.5.07-8.24,0-1.41-.03-2.42-1.13-2.44-2.57-.03-2.71-.03-5.42,0-8.12.01-1.5.97-2.43,2.47-2.48.73-.02,1.46,0,2.26,0,.04-.37.1-.67.1-.96.01-1.28.02-2.55,0-3.83-.02-1.75,1.71-3.36,3.29-3.34,3.75.04,7.51,0,11.26,0,.46,0,.91,0,1.51,0v-4.4c-.83,0-1.55.01-2.27,0-1.52-.03-2.47-.92-2.49-2.43-.03-2.78.01-5.57-.02-8.36-.02-1.4,1.21-2.39,2.56-2.42,2.01-.03,4.02-.01,6.04-.01.66,0,1.32-.02,1.97.01,1.57.08,2.58,1.09,2.59,2.64.03,2.67.03,5.34,0,8.01-.02,1.62-.99,2.52-2.62,2.56-.68.01-1.36.02-2.11.04v4.27c.51.03.96.08,1.41.08,3.6,0,7.2.02,10.8,0,1.8-.01,3.02.78,3.64,2.45.14.38.19.82.2,1.23.02,1.43,0,2.86,0,4.46.69,0,1.34.05,1.97,0,1.82-.16,2.85,1.28,2.82,2.75-.06,2.55,0,5.11-.02,7.66-.01,1.76-1.04,2.78-2.82,2.8-2.55.03-5.11.02-7.66,0-1.76-.02-2.73-1.15-2.73-2.64,0-2.67.02-5.34,0-8.01-.01-1.49,1.1-2.65,2.62-2.56.69.04,1.39,0,2.17,0v-4.39h-12.43c-.07,1.43-.07,2.84,0,4.39.76,0,1.45.05,2.12-.01,1.44-.14,2.71,1.11,2.67,2.64-.07,2.63-.05,5.26,0,7.89.02,1.36-.97,2.64-2.61,2.67-2.71.05-5.42.1-8.12-.02-1.51-.06-2.39-.76-2.43-2.5-.06-2.75-.04-5.49,0-8.24.02-1.58.87-2.38,2.48-2.42.69-.02,1.39,0,2.22,0Z"/>
  </g>
</svg>