<?xml version="1.0" encoding="UTF-8"?>
<svg id="Layer_2" data-name="Layer 2" xmlns="http://www.w3.org/2000/svg" viewBox="0 0 77.52 77.52">
  <defs>
    <style>
      .cls-1 {
        fill: none;
        stroke: #63b78b;
        stroke-miterlimit: 10;
        stroke-width: 1.5px;
      }

      .cls-2 {
        fill: #63b78b;
        stroke-width: 0px;
      }
    </style>
  </defs>
  <g id="Coloured_Icons" data-name="Coloured Icons">
    <g id="Photography">
      <g id="Photography-2" data-name="Photography">
        <path class="cls-2" d="M64.87,22.33c-.03-2.46-1.95-4.6-4.47-4.43-.37.02-.74,0-1.12,0H18.21c-.54,0-1.08,0-1.61.04-1.23.08-2.13.7-2.86,1.68-.82,1.12-1.08,2.39-1.09,3.72,0,10.25,0,20.5.02,30.74,0,.77.13,1.58.37,2.31.43,1.3,1.24,2.38,2.59,2.8.89.28,1.86.41,2.8.41,13.61.03,27.22.02,40.83.02.33,0,.67.04,1-.02,1.07-.15,2.1-.38,2.98-1.09,1.27-1.03,1.67-2.37,1.67-3.94,0-10.58,0-21.15,0-31.73,0-.17,0-.33,0-.5ZM61.01,53.77c0,.38,0,.74-.05,1.11-.07.47-.34.74-.83.75-.38.02-.75.04-1.12.04H18.81c-.62,0-1.23-.07-2-.13V21.85c.49-.06.92-.15,1.36-.15,13.77,0,27.54,0,41.31,0,1.38,0,1.52.14,1.52,1.61,0,7.62,0,15.25,0,22.88,0,2.53,0,5.06,0,7.59Z"/>
        <path class="cls-2" d="M57.98,40.82c.02,3.77,0,7.54,0,11.32,0,.12-.08.22-.15.43H19.79c0-1.74-.03-3.35.03-4.97,0-.37.23-.81.5-1.08,2.42-2.45,4.87-4.88,7.32-7.3.82-.81,1.07-.82,1.92.04.95.96,1.87,1.95,2.8,2.93.11.12.28.18.56.35l13.64-13.64c.65.6,1.29,1.16,1.9,1.75,1.17,1.15,2.34,2.3,3.5,3.47,1.9,1.93,3.8,3.86,5.68,5.81.21.22.36.58.36.88Z"/>
        <path class="cls-2" d="M30.41,30.06c.04,2.94-2.56,5.44-5.39,5.43-2.59,0-5.59-2.51-5.25-5.41-.3-2.97,2.58-5.49,5.34-5.44,2.75.05,5.26,2.33,5.3,5.42Z"/>
      </g>
      <rect class="cls-1" x=".75" y=".75" width="76.02" height="76.02"/>
    </g>
  </g>
</svg>