<?xml version="1.0" encoding="UTF-8"?>
<svg id="Layer_2" data-name="Layer 2" xmlns="http://www.w3.org/2000/svg" viewBox="0 0 45.5 38.77">
  <defs>
    <style>
      .cls-1 {
        fill: #fff;
        stroke-width: 0px;
      }
    </style>
  </defs>
  <g id="Layer_1-2" data-name="Layer 1">
    <g id="Portfolio">
      <path class="cls-1" d="M45.47,10.62c-.06-2.74-2.36-4.47-4.72-4.33-2.32.14-4.65.03-6.98.03-.38,0-.75-.03-1.18-.05-.03-.41-.06-.75-.07-1.09,0-.85,0-1.71,0-2.56-.03-1.78-.82-2.6-2.56-2.61-4.84-.02-9.69,0-14.54,0-1.51,0-2.37.69-2.51,2.53-.05.58,0,1.16,0,1.74v2.04h-1.3c-2.45,0-4.89-.03-7.33,0-1.77.02-3.05.83-3.85,2.46C.05,9.56.03,10.36.02,11.15c-.03,2.68-.02,5.35,0,8.03,0,.34.07.67.11,1.06h45.2c.08-.18.14-.25.14-.32,0-3.1.08-6.2,0-9.3ZM28.96,6.11c-.87.24-10.73.32-12.37.1v-2.63h12.37v2.53Z"/>
      <path class="cls-1" d="M17.31,22.5c0,1.26,0,2.41,0,3.57.01,1.27.53,1.94,1.75,1.97,2.44.06,4.89.06,7.33,0,1.24-.04,1.68-.62,1.7-1.87.02-1.16,0-2.32,0-3.61.42-.06.79-.16,1.15-.16,5.04,0,10.08,0,15.12,0,.33,0,.67.08,1.12.13v1.23c0,3.33,0,6.67,0,10,0,1.1-.15,2.15-.73,3.12-.64,1.07-1.57,1.68-2.79,1.84-.34.05-.7.05-1.04.05-12.1,0-24.2,0-36.3,0-1.14,0-2.2-.12-3.14-.92-.76-.65-1.1-1.46-1.36-2.34-.13-.44-.12-.92-.13-1.39,0-3.53-.01-7.06,0-10.58,0-1.06.07-1.14.99-1.14,5.2,0,10.39,0,15.59,0,.19,0,.37.05.73.1Z"/>
      <path class="cls-1" d="M19.38,22.46c2.31-.13,4.48-.07,6.72-.05v3.52h-6.62c-.24-1.12-.06-2.25-.11-3.47Z"/>
    </g>
  </g>
</svg>