<?xml version="1.0" encoding="UTF-8"?>
<svg id="Layer_2" data-name="Layer 2" xmlns="http://www.w3.org/2000/svg" viewBox="0 0 47.78 38.89">
  <defs>
    <style>
      .cls-1 {
        fill: #fff;
        stroke-width: 0px;
      }
    </style>
  </defs>
  <g id="Layer_1-2" data-name="Layer 1">
    <path id="Twitter" class="cls-1" d="M46.36.66c-.41,2.09-1.49,3.51-3.04,5,1.71.11,2.84-1.12,4.46-.95-.53.75-.9,1.44-1.42,1.99-.88.93-1.83,1.8-2.8,2.64-.49.43-.68.88-.72,1.54-.09,1.75-.21,3.5-.47,5.23-.48,3.17-1.64,6.12-3.23,8.89-1.49,2.6-3.32,4.93-5.55,6.95-2.44,2.21-5.19,3.89-8.25,5.06-4.52,1.74-9.22,2.27-14,1.6-3.45-.48-6.83-1.39-9.81-3.36-.3-.2-.7-.26-1-.46-.18-.12-.26-.38-.55-.84,5.02.46,9.48-.36,13.58-3.42-3.97-.95-6.96-2.87-8.24-6.99h2.74c.04-.1.08-.2.13-.3-.3-.2-.57-.45-.89-.61-3.53-1.73-5.1-4.72-5.48-8.48,0-.09.01-.19.05-.27.03-.08.11-.15.22-.3.93.3,1.9.62,2.87.93C1.75,10.6.95,6.51,3.29,1.87c.29.11.56.12.68.26,2.09,2.55,4.63,4.57,7.47,6.2,2.91,1.66,7.59,3.52,11.53,3.25,0-.43.01-.87,0-1.31-.06-1.7.31-3.32,1.08-4.81,1.34-2.6,3.38-4.29,6.27-5.13,2.34-.68,4.48-.22,6.64.42.71.21,1.39.73,1.94,1.26,1.12,1.06,2.29.91,3.53.36,1.21-.53,2.42-1.06,3.92-1.71Z"/>
  </g>
</svg>