<?xml version="1.0" encoding="UTF-8"?>
<svg id="Layer_2" data-name="Layer 2" xmlns="http://www.w3.org/2000/svg" viewBox="0 0 77.52 77.52">
  <defs>
    <style>
      .cls-1 {
        fill: none;
        stroke: #438fb9;
        stroke-miterlimit: 10;
        stroke-width: 1.5px;
      }

      .cls-2 {
        fill: #448eb9;
        stroke-width: 0px;
      }
    </style>
  </defs>
  <g id="Coloured_Icons" data-name="Coloured Icons">
    <g id="Web_Design" data-name="Web Design">
      <g id="Web_Design-2" data-name="Web Design">
        <path class="cls-2" d="M50.5,36.08c-2.45-2.47-4.9-4.95-7.34-7.41-.81-.81-1.63-1.58-2.53-2.46-1.66,1.63-3.26,3.2-4.85,4.78-1.43,1.43-2.84,2.89-4.28,4.3-1.61,1.59-3.26,3.14-4.85,4.74-2.13,2.14-4.2,4.34-6.38,6.44-.49.47-.62.91-.62,1.51,0,2.89,0,5.78,0,8.67,0,.37.06.74.1,1.23,3.45,0,6.72.02,9.99-.02.33,0,.73-.22.99-.46,1.22-1.17,2.4-2.37,3.6-3.56,2.5-2.49,5-4.97,7.5-7.47,2.87-2.87,5.74-5.76,8.62-8.63.76-.76.79-.91.05-1.67ZM26.51,54.12v-3.03c-1.13-.05-2.14-.1-3.21-.14,0-.82-.25-1.71.06-2.31.42-.79,1.27-1.36,1.94-2.03,1.89,1.83,3.69,3.58,5.6,5.43-1.25,1.32-2.16,2.91-4.39,2.08ZM41.37,31.84c-1.89,1.89-3.8,3.75-5.69,5.64-2.26,2.26-4.49,4.55-6.77,6.8-.32.32-.62.94-1.47.62,1.08-1.37,2.35-2.44,3.51-3.61,1.15-1.17,2.32-2.32,3.48-3.48s2.36-2.4,3.57-3.56c1.15-1.1,2.14-2.39,3.46-3.31.08.07.17.13.26.2-.12.23-.17.52-.35.7Z"/>
        <path class="cls-2" d="M42.01,24.84c.62-.62,1.2-1.21,1.79-1.79.89-.89,1.74-1.82,2.7-2.64,1.19-1.01,2.91-1.03,4.12-.07.83.66,1.59,1.43,2.35,2.18,1.25,1.23,2.42,2.56,3.73,3.72,1.41,1.25,1.62,3.62.21,5.01-1.28,1.26-2.52,2.56-3.8,3.83-.39.38-.78.33-1.19-.09-2.99-2.99-5.99-5.98-8.97-8.98-.32-.32-.57-.71-.94-1.17Z"/>
      </g>
      <rect class="cls-1" x=".75" y=".75" width="76.02" height="76.02"/>
    </g>
  </g>
</svg>