<?xml version="1.0" encoding="UTF-8"?>
<svg id="Layer_2" data-name="Layer 2" xmlns="http://www.w3.org/2000/svg" viewBox="0 0 77.52 77.52">
  <defs>
    <style>
      .cls-1 {
        fill: none;
        stroke: #ce6a65;
        stroke-miterlimit: 10;
        stroke-width: 1.5px;
      }

      .cls-2 {
        fill: #ce6a65;
        stroke-width: 0px;
      }
    </style>
  </defs>
  <g id="Coloured_Icons" data-name="Coloured Icons">
    <g id="Web_Development" data-name="Web Development">
      <g id="Settings">
        <path class="cls-2" d="M47.69,36.42c-.02-.84-.2-1.01-1.06-1.15-.92-.14-1.85-.23-2.78-.37-1.34-.21-2.06-2.01-1.24-3.07.47-.6.97-1.19,1.44-1.79.74-.93.76-1.3-.06-2.21-1.02-1.12-2.1-2.2-3.19-3.26-.75-.74-.98-.75-1.87-.14-.69.48-1.34,1.03-2.01,1.56-1.18.94-2.6.5-2.91-.97-.2-.91-.28-1.84-.42-2.77-.15-.98-.47-1.28-1.49-1.3-1.45-.02-2.89-.02-4.34,0-1,0-1.48.41-1.64,1.4-.13.79-.21,1.6-.28,2.41-.05.61-.08,1.22-.79,1.44-.72.21-1.4.58-2.12-.15-.62-.62-1.43-1.05-2.09-1.64-.56-.5-1.05-.49-1.56,0-1.17,1.1-2.38,2.14-3.47,3.31-.9.98-.83,1.35,0,2.45.63.85,1.26,1.68,1.9,2.53-.31.64-.59,1.22-.91,1.87-.76.12-1.56.24-2.34.38-.55.09-1.1.19-1.63.3-.47.09-.77.35-.77.87,0,1.79,0,3.57,0,5.36,0,.42.2.75.64.84.45.1.9.21,1.36.28.92.13,1.84.23,2.71.33.36.82.68,1.54.97,2.15-.69.89-1.32,1.63-1.87,2.42-.78,1.12-.74,1.77.16,2.72.85.89,1.72,1.75,2.6,2.61.85.83,1.46.89,2.49.26.39-.25.78-.52,1.1-.86,1.02-1.03,2.11-1.32,3.34-.39.06.06.11.13.21.24.13,1.04.23,2.14.39,3.23.17,1.06.45,1.41,1.32,1.44,1.61.05,3.23.05,4.85,0,.82-.03,1.12-.31,1.27-1.14.23-1.22.39-2.43.58-3.67.18-.1.37-.2.54-.32.74-.5,1.43-.64,2.14.08.47.48,1.05.85,1.58,1.26.88.68,1.77.75,2.54.04,1.14-1.07,2.23-2.2,3.27-3.36.61-.68.54-1.1,0-1.8-.57-.73-1.2-1.42-1.71-2.18-.72-1.06.06-2.64,1.32-2.77.88-.09,1.78-.18,2.66-.29.87-.09,1.16-.34,1.18-1.19.04-1.66.04-3.31,0-4.98ZM29.87,45.71c-3.48.04-6.82-3.3-6.83-6.8,0-3.58,3.13-6.96,6.86-6.87,3.88-.02,6.78,3.09,6.83,6.76.05,3.77-3.19,6.88-6.86,6.91Z"/>
        <path class="cls-2" d="M65.45,51.6c0-.32-.11-.64-.18-1.04-1.03-.12-2-.22-2.95-.37-1.39-.21-1.89-1.18-1.35-2.46.31-.74.53-1.51.78-2.27.15-.45.03-.89-.36-1.13-.9-.55-1.84-1.05-2.76-1.56-.44-.25-.81-.14-1.12.25-.53.65-1.08,1.3-1.59,1.97-.75.97-1.8,1-2.52.06-.44-.57-.89-1.12-1.34-1.68-.67-.83-1.02-.9-1.95-.38-.65.39-1.29.8-1.94,1.19-.74.42-.88.64-.65,1.42.24.81.58,1.58.89,2.37.24.61.29,1.22-.28,1.61-.42.3-.95.53-1.46.64-.87.18-1.76.24-2.84.38,0,1.34-.02,2.53,0,3.71.02.86.24,1.13,1.08,1.27.75.13,1.52.21,2.28.28.52.05.84.28,1.11.72.33.53.29,1.02.07,1.56-.32.78-.64,1.56-.89,2.37-.16.47-.05.91.45,1.2.81.46,1.6.95,2.4,1.42.54.31,1.03.3,1.45-.23.45-.56.99-1.05,1.35-1.66.73-1.21,2.34-1.15,3.02.04.35.61.92,1.08,1.34,1.65.4.54.84.5,1.33.21.73-.42,1.42-.93,2.17-1.27.67-.3.93-.73.74-1.4-.24-.81-.51-1.61-.81-2.4-.45-1.12.04-2.03,1.22-2.19.64-.09,1.27-.16,1.9-.25,1.32-.17,1.44-.3,1.45-1.57,0-.81.02-1.62,0-2.43ZM54.55,56.22c-1.95.07-3.3-1.78-3.22-3.35.08-1.68,1.63-3.29,3.27-3.32,1.68-.04,3.19,1.64,3.27,3.42.07,1.77-1.64,3.4-3.31,3.25Z"/>
        <path class="cls-2" d="M65.45,22.49c-1.26-.28-2.38-.52-3.48-.77-1.16-.27-1.51-.94-1.1-2.03.31-.83.6-1.67.87-2.51.17-.52-.04-.9-.51-1.17-1.02-.57-2.04-1.15-3.2-1.81-.97,1.11-1.9,2.18-2.84,3.26h-1.14c-1.1-1.03-1.69-2.41-3.03-3.17-.98.57-1.94,1.11-2.88,1.68-.84.51-.88.58-.6,1.54.25.81.62,1.57.89,2.38.32.96-.09,1.62-1.1,1.83-1.15.25-2.3.5-3.53.76,0,1.33.02,2.57,0,3.79,0,.59.33.86.83.96.91.18,1.84.29,2.74.52.33.08.67.31.89.58.51.56.23,1.19,0,1.78-.27.67-.55,1.33-.78,2.01-.17.53-.06.98.49,1.28.84.48,1.64,1.05,2.49,1.49.52.28,1.06.17,1.45-.38.45-.61.93-1.21,1.44-1.78.97-1.09,1.77-1.03,2.67.15.44.57.92,1.1,1.35,1.68.41.55.92.56,1.46.28.71-.38,1.4-.78,2.08-1.2.87-.52,1.01-.8.74-1.78-.21-.77-.56-1.5-.84-2.26-.32-.87.17-1.72,1.1-1.88.87-.16,1.74-.31,2.61-.47.51-.09.91-.33.92-.89.02-1.27,0-2.53,0-3.87ZM54.64,27.95c-2,.03-3.32-1.57-3.32-3.27,0-1.56,1.48-3.26,3.24-3.27,1.61-.02,3.42,1.38,3.29,3.3.08,1.76-1.38,3.21-3.2,3.23Z"/>
      </g>
      <rect class="cls-1" x=".75" y=".75" width="76.02" height="76.02"/>
    </g>
  </g>
</svg>