<?xml version="1.0" encoding="UTF-8"?>
<svg id="Layer_2" data-name="Layer 2" xmlns="http://www.w3.org/2000/svg" viewBox="0 0 77.52 77.52">
  <defs>
    <style>
      .cls-1 {
        fill: none;
        stroke: #f3bb44;
        stroke-miterlimit: 10;
        stroke-width: 1.5px;
      }

      .cls-2 {
        fill: #f2ba44;
        stroke-width: 0px;
      }
    </style>
  </defs>
  <g id="Coloured_Icons" data-name="Coloured Icons">
    <g id="Web_Solutions" data-name="Web Solutions">
      <g id="LightBulb_-_Web_Solution" data-name="LightBulb - Web Solution">
        <path class="cls-2" d="M51.09,20.7c-2.15-2.41-4.88-4.04-7.97-4.69-4.71-.99-9.34-.64-13.55,2.11-2.7,1.76-4.73,3.97-5.74,7.09-1.38,4.24-.71,8.07,2.01,11.56.59.76,1.21,1.5,1.85,2.22,1.71,1.91,3.12,3.97,3.53,6.63-.05.07-.13.18-.21.27-1.05,1.13-1.64,2.32-.81,3.87.17.32.09.92-.1,1.27-.45.84-.39,1.6.09,2.35.56.88.81,1.78.7,2.85-.13,1.13.48,1.92,1.51,2.39.29.13.57.35.88.39.82.11,1.24.63,1.69,1.26.94,1.3,2.43,1.78,3.88,1.73,1.5-.05,3-.56,3.92-1.98.34-.52.77-.78,1.39-.99,1.79-.62,2.49-1.17,2.38-3.48,0-.13-.07-.28-.04-.41.08-.28.15-.6.33-.82.78-.94.92-2.02.61-3.13-.2-.69-.15-1.28.01-1.96.27-1.11.27-2.29-.71-3.06-.64-.51-.54-.93-.35-1.55.85-2.64,2.55-4.77,4.36-6.76,1.96-2.14,3.27-4.47,3.56-7.4.37-3.76-.73-6.98-3.22-9.76ZM49.72,31.26c-.49,1.65-1.46,2.97-2.61,4.15-2.65,2.73-4.59,5.83-5.21,9.72h-6.03c-.58-1.56-1.1-3.06-1.7-4.53-.91-2.21-2.53-3.92-4.13-5.64-1.56-1.67-2.5-3.58-2.48-5.93.03-3.1,1.58-5.32,4-7.01,3.12-2.17,6.67-2.83,10.27-1.88,3.67.96,6.75,2.96,7.93,6.91.41,1.39.38,2.79-.04,4.21Z"/>
        <path class="cls-2" d="M44.44,30.31c-.59-.01-1-.31-1.07-.87-.25-2.05-1.81-2.45-3.43-2.76-.36-.07-.74-.01-1.1-.08-.91-.17-1.33-1.04-1-1.9.23-.57.7-.51,1.15-.52.19-.01.37-.01.79-.01,1.38-.12,2.72.65,4.02,1.4,1.08.62,1.6,1.75,1.95,2.9.29.95-.42,1.86-1.31,1.84Z"/>
      </g>
      <rect class="cls-1" x=".75" y=".75" width="76.02" height="76.02"/>
    </g>
  </g>
</svg>