<?xml version="1.0" encoding="UTF-8"?>
<svg id="Layer_2" data-name="Layer 2" xmlns="http://www.w3.org/2000/svg" viewBox="0 0 42.72 42.62">
  <defs>
    <style>
      .cls-1 {
        fill: #fff;
        stroke-width: 0px;
      }
    </style>
  </defs>
  <g id="Layer_1-2" data-name="Layer 1">
    <g id="Wifi">
      <path class="cls-1" d="M38.45,42.52c-.88,0-1.76.02-2.63,0-.85-.03-1.37-.49-1.55-1.32-.13-.58-.29-1.17-.32-1.76-.21-4.41-1.56-8.53-3.53-12.4-1.67-3.27-3.86-6.21-6.57-8.79-2.41-2.3-5-4.27-7.94-5.78-2.07-1.06-4.2-1.99-6.48-2.62-2.46-.68-4.93-1.1-7.47-1.3-1.12-.09-1.85-.85-1.89-1.99-.05-1.48-.05-2.96,0-4.44C.1.85.89.11,2.16,0c.18-.01.37-.01.55.01,2.51.37,5.03.63,7.51,1.14,2.7.56,5.3,1.52,7.8,2.7,4.99,2.35,9.44,5.48,13.18,9.53,3.18,3.45,5.82,7.28,7.75,11.61,1.02,2.28,1.73,4.65,2.55,6.99.36,1.03.46,2.16.61,3.25.24,1.69.49,3.38.6,5.07.09,1.37-.69,2.15-2.04,2.24-.74.05-1.48,0-2.22,0,0-.02,0-.03,0-.05Z"/>
      <path class="cls-1" d="M.05,19.48c0-.6-.01-1.2,0-1.8.04-1.52.7-2.3,2.19-2.24,1.51.06,3.04.26,4.52.59,2.29.52,4.49,1.38,6.52,2.56,1.66.97,3.27,2.05,4.73,3.29,1.81,1.54,3.44,3.3,4.75,5.32,1.86,2.88,3.39,5.9,3.98,9.33.2,1.18.44,2.35.57,3.54.16,1.58-.56,2.56-2.3,2.52-1.25-.03-2.5.02-3.75-.02-1.57-.05-1.88-.37-2.18-1.91-.46-2.45-.97-4.87-2.25-7.06-1.35-2.33-2.95-4.39-5.13-6.04-2.2-1.66-4.57-2.84-7.25-3.42-.9-.2-1.81-.34-2.71-.54-1.05-.22-1.61-.84-1.67-1.89-.04-.74,0-1.48,0-2.22h0Z"/>
      <path class="cls-1" d="M6.07,30.77c3.04-.25,5.97,2.51,5.95,5.89-.02,3.34-2.6,5.89-5.91,5.96C2.63,42.69-.02,39.62,0,36.67c.02-3.04,2.7-6.19,6.07-5.9Z"/>
    </g>
  </g>
</svg>